<svg width="72" height="48" viewBox="0 0 72 48" fill="none" xmlns="http://www.w3.org/2000/svg">
<path d="M2.76135 19V4.45459H4.43749V9.8239H4.57954C4.70264 9.63451 4.8731 9.39303 5.0909 9.09947C5.31344 8.80118 5.63067 8.53602 6.0426 8.30402C6.45927 8.06727 7.02272 7.9489 7.73294 7.9489C8.65151 7.9489 9.46116 8.17854 10.1619 8.63782C10.8627 9.0971 11.4096 9.74815 11.8026 10.5909C12.1955 11.4337 12.392 12.428 12.392 13.5739C12.392 14.7292 12.1955 15.7306 11.8026 16.5781C11.4096 17.4209 10.8651 18.0743 10.169 18.5384C9.473 18.9976 8.67044 19.2273 7.76135 19.2273C7.0606 19.2273 6.49952 19.1113 6.07811 18.8793C5.65671 18.6425 5.33238 18.375 5.1051 18.0767C4.87783 17.7737 4.70264 17.5227 4.57954 17.3239H4.38067V19H2.76135ZM4.40908 13.5455C4.40908 14.3693 4.52982 15.0961 4.7713 15.7259C5.01277 16.3509 5.36552 16.8409 5.82954 17.196C6.29355 17.5464 6.86173 17.7216 7.53408 17.7216C8.23484 17.7216 8.81959 17.5369 9.28834 17.1676C9.76183 16.7936 10.117 16.2917 10.3537 15.6619C10.5952 15.0275 10.7159 14.322 10.7159 13.5455C10.7159 12.7784 10.5975 12.0871 10.3608 11.4716C10.1288 10.8513 9.77603 10.3613 9.30255 10.0014C8.8338 9.63688 8.24431 9.45459 7.53408 9.45459C6.85226 9.45459 6.27935 9.62741 5.81533 9.97305C5.35132 10.3139 5.00094 10.7921 4.76419 11.4077C4.52745 12.0185 4.40908 12.7311 4.40908 13.5455Z" fill="#99C9A3"/>
<path d="M40 3.5H23C18.3056 3.5 14.5 7.30558 14.5 12C14.5 16.6944 18.3056 20.5 23 20.5H40C44.6944 20.5 48.5 16.6944 48.5 12C48.5 7.30558 44.6944 3.5 40 3.5Z" stroke="#DDD8D7"/>
<path d="M31.5 12C31.5 7.30558 27.6944 3.5 23 3.5C18.3056 3.5 14.5 7.30558 14.5 12C14.5 16.6944 18.3056 20.5 23 20.5C27.6944 20.5 31.5 16.6944 31.5 12Z" stroke="#DDD8D7"/>
<path d="M28.5867 12.5883C28.9121 12.2629 28.9121 11.7345 28.5867 11.4091L24.4217 7.24405C24.0963 6.91865 23.5678 6.91865 23.2424 7.24405C22.917 7.56944 22.917 8.09788 23.2424 8.42327L25.9888 11.167H18.0023C17.5415 11.167 17.1693 11.5392 17.1693 12C17.1693 12.4608 17.5415 12.833 18.0023 12.833H25.9861L23.245 15.5767C22.9196 15.9021 22.9196 16.4306 23.245 16.756C23.5704 17.0813 24.0989 17.0813 24.4243 16.756L28.5893 12.5909L28.5867 12.5883Z" fill="#DDD8D7"/>
<path d="M52.0966 15.0227L52.0682 12.9489H52.4091L57.1818 8.09095H59.2557L54.1705 13.233H54.0284L52.0966 15.0227ZM50.5341 19V4.45459H52.2102V19H50.5341ZM57.4659 19L53.2045 13.6023L54.3977 12.4375L59.5966 19H57.4659ZM69.1403 10.5341L67.6346 10.9602C67.5399 10.7093 67.4002 10.4654 67.2156 10.2287C67.0356 9.98726 66.7894 9.78839 66.4769 9.63214C66.1644 9.47589 65.7643 9.39777 65.2766 9.39777C64.609 9.39777 64.0527 9.55165 63.6076 9.85942C63.1673 10.1624 62.9471 10.5483 62.9471 11.017C62.9471 11.4337 63.0986 11.7628 63.4016 12.0043C63.7047 12.2457 64.1781 12.447 64.8221 12.608L66.4414 13.0057C67.4168 13.2424 68.1436 13.6046 68.6218 14.0923C69.1 14.5753 69.3391 15.1979 69.3391 15.9602C69.3391 16.5852 69.1592 17.1439 68.7994 17.6364C68.4442 18.1288 67.9471 18.517 67.3079 18.8011C66.6687 19.0852 65.9253 19.2273 65.0778 19.2273C63.9651 19.2273 63.0442 18.9858 62.315 18.5028C61.5858 18.0199 61.1242 17.3144 60.93 16.3864L62.521 15.9886C62.6725 16.5758 62.9589 17.0161 63.3803 17.3097C63.8065 17.6032 64.3628 17.75 65.0494 17.75C65.8306 17.75 66.4509 17.5843 66.9102 17.2528C67.3742 16.9167 67.6062 16.5142 67.6062 16.0455C67.6062 15.6667 67.4736 15.3494 67.2085 15.0938C66.9433 14.8333 66.5361 14.6392 65.9869 14.5114L64.1687 14.0852C63.1696 13.8485 62.4357 13.4815 61.967 12.9844C61.503 12.4825 61.271 11.8551 61.271 11.1023C61.271 10.4867 61.4438 9.94227 61.7894 9.46879C62.1398 8.99531 62.6156 8.62362 63.217 8.35373C63.823 8.08385 64.5096 7.9489 65.2766 7.9489C66.3562 7.9489 67.2037 8.18565 67.8192 8.65913C68.4395 9.13262 68.8799 9.75762 69.1403 10.5341Z" fill="#99C9A3"/>
<path d="M11.7614 34.5341L10.2557 34.9602C10.161 34.7093 10.0213 34.4654 9.83666 34.2287C9.65673 33.9872 9.41052 33.7884 9.09802 33.6321C8.78552 33.4759 8.38543 33.3977 7.89774 33.3977C7.23012 33.3977 6.67378 33.5516 6.2287 33.8594C5.78836 34.1624 5.56819 34.5483 5.56819 35.017C5.56819 35.4337 5.71971 35.7628 6.02274 36.0043C6.32577 36.2457 6.79925 36.447 7.44319 36.608L9.06251 37.0057C10.0379 37.2424 10.7647 37.6046 11.2429 38.0923C11.7211 38.5753 11.9602 39.1979 11.9602 39.9602C11.9602 40.5852 11.7803 41.1439 11.4205 41.6364C11.0653 42.1288 10.5682 42.517 9.92899 42.8011C9.28978 43.0852 8.54641 43.2273 7.69887 43.2273C6.58618 43.2273 5.66526 42.9858 4.93609 42.5028C4.20692 42.0199 3.74528 41.3144 3.55115 40.3864L5.14206 39.9886C5.29357 40.5758 5.58003 41.0161 6.00143 41.3097C6.42757 41.6032 6.98391 41.75 7.67046 41.75C8.45171 41.75 9.07198 41.5843 9.53126 41.2528C9.99528 40.9167 10.2273 40.5142 10.2273 40.0455C10.2273 39.6667 10.0947 39.3494 9.82956 39.0938C9.5644 38.8333 9.15721 38.6392 8.60796 38.5114L6.78978 38.0852C5.79073 37.8485 5.05683 37.4815 4.58808 36.9844C4.12406 36.4825 3.89206 35.8551 3.89206 35.1023C3.89206 34.4867 4.06488 33.9422 4.41052 33.4688C4.7609 32.9953 5.23675 32.6236 5.83808 32.3537C6.44414 32.0838 7.13069 31.9489 7.89774 31.9489C8.97728 31.9489 9.82482 32.1856 10.4403 32.6591C11.0606 33.1326 11.5009 33.7576 11.7614 34.5341ZM19.2276 32.0909V33.5114H13.5742V32.0909H19.2276ZM15.2219 29.4773H16.8981V39.875C16.8981 40.3485 16.9667 40.7036 17.104 40.9403C17.2461 41.1723 17.426 41.3286 17.6438 41.4091C17.8664 41.4848 18.1007 41.5227 18.3469 41.5227C18.5316 41.5227 18.6831 41.5133 18.8015 41.4943C18.9199 41.4706 19.0146 41.4517 19.0856 41.4375L19.4265 42.9432C19.3129 42.9858 19.1542 43.0284 18.9506 43.071C18.747 43.1184 18.489 43.142 18.1765 43.142C17.703 43.142 17.239 43.0402 16.7844 42.8366C16.3346 42.633 15.9606 42.3229 15.6623 41.9062C15.3687 41.4896 15.2219 40.964 15.2219 40.3295V29.4773ZM26.0636 43.2273C25.0787 43.2273 24.2146 42.9929 23.4712 42.5241C22.7326 42.0554 22.1549 41.3996 21.7383 40.5568C21.3263 39.714 21.1204 38.7292 21.1204 37.6023C21.1204 36.4659 21.3263 35.474 21.7383 34.6264C22.1549 33.7789 22.7326 33.1207 23.4712 32.652C24.2146 32.1832 25.0787 31.9489 26.0636 31.9489C27.0484 31.9489 27.9102 32.1832 28.6488 32.652C29.3922 33.1207 29.9698 33.7789 30.3817 34.6264C30.7984 35.474 31.0067 36.4659 31.0067 37.6023C31.0067 38.7292 30.7984 39.714 30.3817 40.5568C29.9698 41.3996 29.3922 42.0554 28.6488 42.5241C27.9102 42.9929 27.0484 43.2273 26.0636 43.2273ZM26.0636 41.7216C26.8117 41.7216 27.4272 41.5298 27.9102 41.1463C28.3931 40.7628 28.7506 40.2585 28.9826 39.6335C29.2146 39.0085 29.3306 38.3314 29.3306 37.6023C29.3306 36.8731 29.2146 36.1937 28.9826 35.5639C28.7506 34.9342 28.3931 34.4252 27.9102 34.0369C27.4272 33.6487 26.8117 33.4545 26.0636 33.4545C25.3155 33.4545 24.6999 33.6487 24.217 34.0369C23.734 34.4252 23.3765 34.9342 23.1445 35.5639C22.9125 36.1937 22.7965 36.8731 22.7965 37.6023C22.7965 38.3314 22.9125 39.0085 23.1445 39.6335C23.3765 40.2585 23.734 40.7628 24.217 41.1463C24.6999 41.5298 25.3155 41.7216 26.0636 41.7216ZM33.5653 43V32.0909H35.1847V33.7386H35.2983C35.4972 33.1989 35.857 32.7609 36.3778 32.4247C36.8987 32.0885 37.4858 31.9205 38.1392 31.9205C38.2623 31.9205 38.4162 31.9228 38.6009 31.9276C38.7855 31.9323 38.9252 31.9394 39.0199 31.9489V33.6534C38.9631 33.6392 38.8329 33.6179 38.6293 33.5895C38.4304 33.5563 38.2197 33.5398 37.9972 33.5398C37.4669 33.5398 36.9934 33.651 36.5767 33.8736C36.1648 34.0914 35.8381 34.3944 35.5966 34.7827C35.3598 35.1662 35.2415 35.6042 35.2415 36.0966V43H33.5653ZM45.2486 43.2273C44.1974 43.2273 43.2907 42.9953 42.5284 42.5312C41.7708 42.0625 41.1861 41.4091 40.7741 40.571C40.367 39.7282 40.1634 38.7481 40.1634 37.6307C40.1634 36.5133 40.367 35.5284 40.7741 34.6761C41.1861 33.8191 41.759 33.1515 42.4929 32.6733C43.2315 32.1903 44.0933 31.9489 45.0781 31.9489C45.6463 31.9489 46.2074 32.0436 46.7614 32.233C47.3153 32.4223 47.8196 32.7301 48.2741 33.1562C48.7287 33.5777 49.0909 34.1364 49.3608 34.8324C49.6307 35.5284 49.7656 36.3854 49.7656 37.4034V38.1136H41.3565V36.6648H48.0611C48.0611 36.0492 47.938 35.5 47.6918 35.017C47.4503 34.5341 47.1046 34.1529 46.6548 33.8736C46.2098 33.5942 45.6842 33.4545 45.0781 33.4545C44.4105 33.4545 43.8329 33.6203 43.3452 33.9517C42.8622 34.2784 42.4905 34.7045 42.2301 35.2301C41.9697 35.7557 41.8395 36.3191 41.8395 36.9205V37.8864C41.8395 38.7102 41.9815 39.4086 42.2656 39.9815C42.5545 40.5497 42.9545 40.983 43.4659 41.2812C43.9773 41.5748 44.5715 41.7216 45.2486 41.7216C45.6889 41.7216 46.0866 41.66 46.4418 41.5369C46.8016 41.4091 47.1117 41.2197 47.3722 40.9688C47.6326 40.7131 47.8338 40.3958 47.9759 40.017L49.5952 40.4716C49.4247 41.0208 49.1383 41.5038 48.7358 41.9205C48.3333 42.3324 47.8362 42.6544 47.2443 42.8864C46.6525 43.1136 45.9872 43.2273 45.2486 43.2273Z" fill="#99C9A3"/>
<path d="M69 36C69 31.3056 65.1944 27.5 60.5 27.5C55.8056 27.5 52 31.3056 52 36C52 40.6944 55.8056 44.5 60.5 44.5C65.1944 44.5 69 40.6944 69 36Z" stroke="#DDD8D7"/>
<path d="M66.0867 36.5883C66.4121 36.2629 66.4121 35.7345 66.0867 35.4091L61.9217 31.244C61.5963 30.9187 61.0679 30.9187 60.7425 31.244C60.4171 31.5694 60.4171 32.0979 60.7425 32.4233L63.4888 35.167H55.5023C55.0416 35.167 54.6693 35.5392 54.6693 36C54.6693 36.4608 55.0416 36.833 55.5023 36.833H63.4862L60.7451 39.5767C60.4197 39.9021 60.4197 40.4306 60.7451 40.756C61.0705 41.0813 61.5989 41.0813 61.9243 40.756L66.0893 36.5909L66.0867 36.5883Z" fill="#DDD8D7"/>
</svg>
